<svg width="364" height="85" viewBox="0 0 364 85" fill="none" xmlns="http://www.w3.org/2000/svg">
<path d="M0 83.3307C1.19044 74.7595 2.18247 66.2281 2.9761 57.7363C3.84908 49.1651 4.60303 40.1971 5.23793 30.8324C5.87283 21.3882 6.42837 11.1108 6.90454 0H64.2837C64.7599 11.1108 65.3154 21.3882 65.9503 30.8324C66.5852 40.1971 67.3391 49.1651 68.2121 57.7363C69.0851 66.2281 70.0772 74.7595 71.1882 83.3307H61.5457C61.5457 82.5371 61.5457 81.7831 61.5457 81.0689C61.5457 80.2752 61.5457 79.4816 61.5457 78.688C61.5457 76.7039 61.387 74.9183 61.0695 73.331C60.8314 71.6644 60.1172 70.4343 58.9267 69.6407C58.6093 69.4026 58.1331 69.2042 57.4982 69.0454C56.9427 68.8074 55.8713 68.609 54.284 68.4502C52.7761 68.2121 50.5143 68.0534 47.4985 67.9741C44.5621 67.8153 40.594 67.736 35.5941 67.736C30.5943 67.736 26.5865 67.8153 23.5707 67.9741C20.6343 68.0534 18.3724 68.2121 16.7852 68.4502C15.2773 68.609 14.2059 68.8074 13.571 69.0454C13.0155 69.2042 12.579 69.4026 12.2615 69.6407C11.1504 70.4343 10.4362 71.6644 10.1187 73.331C9.80128 74.9183 9.64255 76.7039 9.64255 78.688C9.64255 79.4816 9.64255 80.2752 9.64255 81.0689C9.64255 81.7831 9.64255 82.5371 9.64255 83.3307H0ZM35.5941 41.5463C38.4512 41.5463 41.0701 41.5066 43.451 41.4273C45.8319 41.3479 47.935 41.2289 49.7603 41.0701C51.665 40.832 53.2523 40.5146 54.5221 40.1178C55.7919 39.721 56.7839 39.1654 57.4982 38.4512C57.895 38.0544 58.1728 37.6575 58.3315 37.2607C58.4902 36.7846 58.5696 36.1497 58.5696 35.356C58.5696 34.9592 58.5299 34.6021 58.4505 34.2846C58.4505 33.9672 58.4109 33.6894 58.3315 33.4513C58.2521 33.2132 58.1331 33.0148 57.9744 32.8561C57.8156 32.618 57.6569 32.4196 57.4982 32.2609C56.6252 31.3085 55.157 30.634 53.0936 30.2371C51.1095 29.761 48.6096 29.4832 45.5938 29.4038C42.6574 29.2451 39.3242 29.1657 35.5941 29.1657C31.8641 29.1657 28.4912 29.2451 25.4754 29.4038C22.539 29.4832 20.0787 29.761 18.0947 30.2371C16.1106 30.634 14.6424 31.3085 13.69 32.2609C13.5313 32.4196 13.3726 32.618 13.2139 32.8561C13.0551 33.0148 12.9361 33.2132 12.8567 33.4513C12.7774 33.6894 12.698 33.9672 12.6186 34.2846C12.6186 34.6021 12.6186 34.9592 12.6186 35.356C12.6186 36.1497 12.698 36.7846 12.8567 37.2607C13.0948 37.6575 13.3726 38.0544 13.69 38.4512C14.4043 39.1654 15.3963 39.721 16.6661 40.1178C17.9359 40.5146 19.4835 40.832 21.3088 41.0701C23.2136 41.2289 25.3563 41.3479 27.7372 41.4273C30.1181 41.5066 32.7371 41.5463 35.5941 41.5463Z" fill="url(#paint0_linear_248_2807)"/>
<path d="M78.117 83.3307C78.1963 77.6166 78.236 72.9342 78.236 69.2835C78.3154 65.6329 78.355 62.6171 78.355 60.2362C78.4344 57.776 78.4741 55.6728 78.4741 53.9269C78.4741 52.1015 78.4741 50.2762 78.4741 48.4509C78.4741 46.5462 78.4741 44.2843 78.4741 41.6654C78.4741 39.0464 78.4741 36.8242 78.4741 34.9989C78.4741 33.0942 78.4741 31.2689 78.4741 29.5229C78.4741 27.6975 78.4344 25.5944 78.355 23.2136C78.355 20.7533 78.3154 17.6979 78.236 14.0472C78.236 10.3965 78.1963 5.71411 78.117 0H87.8786C87.7992 1.66662 87.7198 3.25387 87.6405 4.76176C87.5611 6.19028 87.4817 7.57913 87.4024 8.9283C87.4024 10.2775 87.4024 11.5869 87.4024 12.8567C87.4024 14.1265 87.4024 15.3963 87.4024 16.6661C87.4024 18.174 87.4421 19.4438 87.5214 20.4755C87.6801 21.5073 88.1563 22.3406 88.9499 22.9755C89.6642 23.6104 90.7753 24.0865 92.2832 24.404C93.7911 24.7214 95.9339 24.9595 98.7115 25.1183C101.569 25.1976 105.299 25.2373 109.902 25.2373C114.584 25.2373 118.314 25.1976 121.092 25.1183C123.869 24.9595 126.012 24.7214 127.52 24.404C129.028 24.0865 130.139 23.6104 130.853 22.9755C131.647 22.3406 132.084 21.5073 132.163 20.4755C132.322 19.4438 132.401 18.174 132.401 16.6661C132.401 15.3963 132.401 14.0075 132.401 12.4996C132.401 10.9917 132.401 9.44415 132.401 7.8569C132.401 6.26965 132.401 4.80144 132.401 3.45228C132.401 2.10311 132.401 0.952353 132.401 0H143.472C142.837 7.38072 142.123 13.7694 141.329 19.1661C140.615 24.4834 139.742 29.007 138.71 32.7371C137.758 36.3877 136.528 39.3638 135.02 41.6654C133.591 43.9669 131.845 45.7922 129.782 47.1414C127.719 48.4112 125.219 49.3635 122.282 49.9984C119.425 50.554 116.568 50.9111 113.711 51.0698C110.854 51.1492 108.354 51.1889 106.211 51.1889C106.687 51.9825 107.322 52.7761 108.116 53.5697C108.989 54.3634 110.06 55.0776 111.33 55.7125C112.679 56.3474 114.227 56.8633 115.973 57.2601C117.798 57.5776 119.822 57.7363 122.044 57.7363C124.504 57.7363 127.282 57.4188 130.377 56.7839C133.472 56.149 136.369 55.276 139.067 54.165C141.845 53.0539 143.988 51.8634 145.496 50.5936V81.7831C144.543 82.2593 142.956 82.6958 140.734 83.0926C138.591 83.4101 136.369 83.6878 134.068 83.9259C131.845 84.164 130.06 84.2831 128.711 84.2831C123.235 84.2831 118.552 83.3307 114.663 81.426C110.775 79.5213 107.6 76.9817 105.14 73.8072C102.68 70.5533 100.854 66.982 99.6639 63.0933C98.5528 59.2045 97.9973 55.3157 97.9973 51.427C96.41 51.427 95.0212 51.546 93.8307 51.7841C92.6403 51.9428 91.6483 52.2206 90.8546 52.6174C90.1404 53.0142 89.5055 53.5697 88.9499 54.284C88.1563 55.3157 87.6405 56.7442 87.4024 58.5696C87.2437 60.3949 87.1643 62.6171 87.1643 65.236C87.1643 66.2678 87.1643 67.5772 87.1643 69.1645C87.2437 70.7517 87.323 72.458 87.4024 74.2834C87.4817 76.0294 87.5611 77.696 87.6405 79.2832C87.7992 80.8705 87.9182 82.2196 87.9976 83.3307H78.117Z" fill="url(#paint1_linear_248_2807)"/>
<path d="M153.831 83.3307C153.91 77.6166 153.95 72.9342 153.95 69.2835C154.029 65.6329 154.069 62.6171 154.069 60.2362C154.148 57.776 154.188 55.6728 154.188 53.9269C154.188 52.1015 154.188 50.2762 154.188 48.4509C154.188 46.5462 154.188 44.2843 154.188 41.6654C154.188 39.0464 154.188 36.8242 154.188 34.9989C154.188 33.0942 154.188 31.2689 154.188 29.5229C154.188 27.6975 154.148 25.5944 154.069 23.2136C154.069 20.7533 154.029 17.6979 153.95 14.0472C153.95 10.3965 153.91 5.71411 153.831 0H215.019L214.662 29.5229C210.377 29.4435 207.004 29.4038 204.543 29.4038C202.083 29.3245 200.02 29.2848 198.353 29.2848C196.687 29.2054 194.941 29.1657 193.115 29.1657C191.369 29.1657 189.068 29.1657 186.211 29.1657C182.163 29.1657 178.751 29.2054 175.973 29.2848C173.195 29.2848 170.933 29.3245 169.187 29.4038C167.441 29.4832 166.053 29.6419 165.021 29.88C164.069 30.0387 163.394 30.3165 162.997 30.7133C162.759 30.872 162.561 31.0705 162.402 31.3085C162.243 31.5466 162.124 31.7847 162.045 32.0228C162.045 32.2609 162.045 32.5387 162.045 32.8561C162.045 33.1736 162.045 33.4513 162.045 33.6894C162.124 33.9275 162.243 34.1656 162.402 34.4037C162.561 34.5624 162.759 34.7608 162.997 34.9989C163.553 35.4751 164.624 35.8322 166.211 36.0703C167.799 36.229 170.179 36.3481 173.354 36.4274C176.528 36.5068 180.814 36.5465 186.211 36.5465C187.719 36.5465 188.988 36.5465 190.02 36.5465C191.131 36.5465 192.401 36.5465 193.829 36.5465C195.258 36.4671 197.242 36.4274 199.782 36.4274C202.401 36.3481 205.972 36.2687 210.496 36.1893V45.1176C205.972 45.0383 202.401 44.9986 199.782 44.9986C197.242 44.9192 195.258 44.8795 193.829 44.8795C192.401 44.8002 191.131 44.7605 190.02 44.7605C188.988 44.7605 187.719 44.7605 186.211 44.7605C180.814 44.7605 176.568 44.8002 173.473 44.8795C170.378 44.8795 168.076 44.9986 166.568 45.2367C165.061 45.4748 163.949 45.8716 163.235 46.4271C162.918 46.6652 162.68 46.9827 162.521 47.3795C162.362 47.7763 162.243 48.1334 162.164 48.4509C162.084 48.7683 162.045 49.0461 162.045 49.2842C162.045 49.6016 162.084 49.9191 162.164 50.2365C162.243 50.554 162.362 50.8714 162.521 51.1889C162.68 51.5063 162.918 51.8238 163.235 52.1412C163.791 52.6174 164.545 53.0142 165.497 53.3317C166.449 53.5697 167.759 53.7681 169.425 53.9269C171.171 54.0062 173.394 54.0856 176.092 54.165C178.79 54.165 182.163 54.165 186.211 54.165C189.226 54.165 191.647 54.165 193.472 54.165C195.377 54.165 197.163 54.165 198.829 54.165C200.575 54.0856 202.678 54.0062 205.139 53.9269C207.599 53.8475 210.972 53.7681 215.257 53.6888V83.3307H153.831Z" fill="url(#paint2_linear_248_2807)"/>
<path d="M228.64 83.3307C228.164 76.4262 227.609 69.5216 226.974 62.6171C226.418 55.6332 225.744 48.6493 224.95 41.6654C224.474 36.983 223.918 32.3403 223.284 27.7372C222.728 23.1342 222.093 18.5312 221.379 13.9281C220.744 9.24574 220.03 4.60303 219.236 0H230.307C230.466 3.80941 230.664 7.89658 230.902 12.2615C231.14 16.5471 231.379 20.6343 231.617 24.523C231.934 28.4118 232.251 31.7054 232.569 34.4037C232.728 35.4354 232.886 36.3877 233.045 37.2607C233.204 38.0544 233.402 38.7686 233.64 39.4035C233.878 40.0384 234.156 40.6336 234.474 41.1892C234.791 41.6654 235.148 42.0622 235.545 42.3796C236.418 43.0145 237.608 43.451 239.116 43.6891C240.624 43.8478 241.973 43.9272 243.164 43.9272C244.354 43.9272 245.743 43.8081 247.33 43.5701C248.997 43.332 250.346 42.7764 251.378 41.9034C251.933 41.4273 252.41 40.9114 252.806 40.3559C253.283 39.721 253.679 38.8877 253.997 37.8559C254.394 36.7449 254.751 35.2767 255.068 33.4513C255.465 31.626 255.862 29.2451 256.259 26.3087C256.655 23.3723 257.092 19.7613 257.568 15.4757C258.124 11.1901 258.759 6.03156 259.473 0H272.449C273.163 6.03156 273.758 11.1901 274.234 15.4757C274.79 19.7613 275.266 23.3723 275.663 26.3087C276.06 29.2451 276.417 31.626 276.734 33.4513C277.131 35.2767 277.488 36.7449 277.806 37.8559C278.202 38.8877 278.599 39.721 278.996 40.3559C279.472 40.9114 279.988 41.4273 280.544 41.9034C281.655 42.7764 283.004 43.332 284.591 43.5701C286.178 43.8081 287.567 43.9272 288.758 43.9272C289.948 43.9272 291.297 43.8478 292.805 43.6891C294.392 43.451 295.583 43.0145 296.376 42.3796C296.773 42.0622 297.13 41.6654 297.448 41.1892C297.765 40.6336 298.043 40.0384 298.281 39.4035C298.519 38.7686 298.718 38.0544 298.876 37.2607C299.114 36.3877 299.273 35.4354 299.353 34.4037C299.67 31.7054 299.948 28.4118 300.186 24.523C300.503 20.6343 300.781 16.5471 301.019 12.2615C301.257 7.89658 301.456 3.80941 301.614 0H312.685C311.971 4.60303 311.257 9.24574 310.543 13.9281C309.908 18.5312 309.273 23.1342 308.638 27.7372C308.082 32.3403 307.527 36.983 306.971 41.6654C306.178 48.6493 305.463 55.6332 304.829 62.6171C304.273 69.5216 303.757 76.4262 303.281 83.3307H273.52C273.044 76.9817 272.607 71.5454 272.211 67.0217C271.893 62.498 271.536 58.7283 271.139 55.7125C270.822 52.6968 270.504 50.2762 270.187 48.4509C269.869 46.6255 269.473 45.2764 268.996 44.4034C268.6 43.451 268.123 42.8161 267.568 42.4987C267.012 42.1812 266.377 42.0225 265.663 42.0225C264.87 42.0225 264.195 42.1812 263.639 42.4987C263.084 42.8161 262.568 43.451 262.092 44.4034C261.695 45.2764 261.338 46.6255 261.02 48.4509C260.703 50.2762 260.386 52.6968 260.068 55.7125C259.83 58.7283 259.552 62.498 259.235 67.0217C258.997 71.5454 258.719 76.9817 258.401 83.3307H228.64Z" fill="url(#paint3_linear_248_2807)"/>
<path d="M317.93 83.3307V53.8078C319.755 53.8872 321.342 53.9666 322.692 54.0459C324.12 54.1253 325.35 54.165 326.382 54.165C328.604 54.165 330.271 54.0459 331.382 53.8078C332.572 53.5697 333.485 53.2523 334.12 52.8555C334.755 52.4587 335.231 52.0222 335.548 51.546C335.945 51.0698 336.223 50.4349 336.382 49.6413C336.62 48.8477 336.779 47.816 336.858 46.5462C336.937 45.2764 336.977 43.6494 336.977 41.6654C336.977 39.6813 336.937 38.0544 336.858 36.7846C336.779 35.5148 336.62 34.483 336.382 33.6894C336.223 32.8958 335.945 32.2609 335.548 31.7847C335.231 31.3085 334.755 30.872 334.12 30.4752C333.485 30.0784 332.572 29.761 331.382 29.5229C330.271 29.2848 328.604 29.1657 326.382 29.1657C325.35 29.1657 324.12 29.2054 322.692 29.2848C321.342 29.2848 319.755 29.3642 317.93 29.5229V0H364V29.5229C362.254 29.3642 360.667 29.2848 359.238 29.2848C357.889 29.2054 356.659 29.1657 355.548 29.1657C353.326 29.1657 351.619 29.2848 350.429 29.5229C349.318 29.761 348.445 30.0784 347.81 30.4752C347.254 30.872 346.778 31.3085 346.381 31.7847C345.985 32.2609 345.667 32.8958 345.429 33.6894C345.27 34.483 345.151 35.5148 345.072 36.7846C344.993 38.0544 344.953 39.6813 344.953 41.6654C344.953 43.6494 344.993 45.2764 345.072 46.5462C345.151 47.816 345.27 48.8477 345.429 49.6413C345.667 50.4349 345.985 51.0698 346.381 51.546C346.778 52.0222 347.254 52.4587 347.81 52.8555C348.445 53.2523 349.318 53.5697 350.429 53.8078C351.619 54.0459 353.326 54.165 355.548 54.165C356.659 54.165 357.889 54.1253 359.238 54.0459C360.667 53.9666 362.254 53.8872 364 53.8078V83.3307H317.93Z" fill="url(#paint4_linear_248_2807)"/>
<defs>
<linearGradient id="paint0_linear_248_2807" x1="101.227" y1="201.747" x2="201.902" y2="-43.3285" gradientUnits="userSpaceOnUse">
<stop offset="0.316313" stop-color="#983E1C"/>
<stop offset="0.535995"/>
<stop offset="1" stop-color="#FF5211"/>
</linearGradient>
<linearGradient id="paint1_linear_248_2807" x1="101.227" y1="201.747" x2="201.902" y2="-43.3285" gradientUnits="userSpaceOnUse">
<stop offset="0.316313" stop-color="#983E1C"/>
<stop offset="0.535995"/>
<stop offset="1" stop-color="#FF5211"/>
</linearGradient>
<linearGradient id="paint2_linear_248_2807" x1="101.227" y1="201.747" x2="201.902" y2="-43.3285" gradientUnits="userSpaceOnUse">
<stop offset="0.316313" stop-color="#983E1C"/>
<stop offset="0.535995"/>
<stop offset="1" stop-color="#FF5211"/>
</linearGradient>
<linearGradient id="paint3_linear_248_2807" x1="101.227" y1="201.747" x2="201.902" y2="-43.3285" gradientUnits="userSpaceOnUse">
<stop offset="0.316313" stop-color="#983E1C"/>
<stop offset="0.535995"/>
<stop offset="1" stop-color="#FF5211"/>
</linearGradient>
<linearGradient id="paint4_linear_248_2807" x1="101.227" y1="201.747" x2="201.902" y2="-43.3285" gradientUnits="userSpaceOnUse">
<stop offset="0.316313" stop-color="#983E1C"/>
<stop offset="0.535995"/>
<stop offset="1" stop-color="#FF5211"/>
</linearGradient>
</defs>
</svg>
